<mxfile host="app.diagrams.net" agent="Mozilla/5.0 (Windows NT 10.0; Win64; x64) AppleWebKit/537.36 (KHTML, like Gecko) Chrome/138.0.0.0 Safari/537.36 Edg/138.0.0.0" version="28.0.7">
  <diagram name="Page-1" id="4J8M-pQB1aqgU6J5mA3r">
    <mxGraphModel dx="3427" dy="1189" grid="1" gridSize="10" guides="1" tooltips="1" connect="1" arrows="1" fold="1" page="1" pageScale="1" pageWidth="1390" pageHeight="980" math="0" shadow="0">
      <root>
        <mxCell id="0" />
        <mxCell id="1" parent="0" />
        <mxCell id="fsJYFwS3ZAUU-XNZBjbN-2" value="&amp;nbsp;HPU_RET_LEV_L" style="rounded=0;whiteSpace=wrap;html=1;" parent="1" vertex="1">
          <mxGeometry x="30" y="20" width="410" height="60" as="geometry" />
        </mxCell>
        <mxCell id="fsJYFwS3ZAUU-XNZBjbN-3" value="HPU_SPLY_LEV _L" style="rounded=0;whiteSpace=wrap;html=1;" parent="1" vertex="1">
          <mxGeometry x="520" y="20" width="470" height="60" as="geometry" />
        </mxCell>
        <mxCell id="VrIYwd6mz3Xe0gdIDtXp-2" value="LP_Runs_2h" style="ellipse;whiteSpace=wrap;html=1;aspect=fixed;" vertex="1" parent="1">
          <mxGeometry x="502.75" y="108.93" width="77.25" height="77.25" as="geometry" />
        </mxCell>
        <mxCell id="VrIYwd6mz3Xe0gdIDtXp-3" value="HP_Runs_2h" style="ellipse;whiteSpace=wrap;html=1;aspect=fixed;" vertex="1" parent="1">
          <mxGeometry x="656" y="110" width="81" height="81" as="geometry" />
        </mxCell>
        <mxCell id="VrIYwd6mz3Xe0gdIDtXp-4" value="&lt;br&gt;&lt;div&gt;HPU_LPB_SPLY&lt;/div&gt;" style="ellipse;whiteSpace=wrap;html=1;aspect=fixed;" vertex="1" parent="1">
          <mxGeometry x="514.38" y="241.25" width="68.75" height="68.75" as="geometry" />
        </mxCell>
        <mxCell id="VrIYwd6mz3Xe0gdIDtXp-5" value="&lt;br&gt;&lt;div&gt;HPU_HPA_SPLY&lt;/div&gt;" style="ellipse;whiteSpace=wrap;html=1;aspect=fixed;" vertex="1" parent="1">
          <mxGeometry x="650" y="241.25" width="68.75" height="68.75" as="geometry" />
        </mxCell>
        <mxCell id="VrIYwd6mz3Xe0gdIDtXp-6" value="&lt;br&gt;&lt;div&gt;HPU_LPA_OUT&lt;span style=&quot;white-space: pre;&quot;&gt;&#x9;&lt;/span&gt;&lt;/div&gt;" style="ellipse;whiteSpace=wrap;html=1;aspect=fixed;" vertex="1" parent="1">
          <mxGeometry x="400" y="360" width="68.75" height="68.75" as="geometry" />
        </mxCell>
        <mxCell id="VrIYwd6mz3Xe0gdIDtXp-7" value="&lt;br&gt;&lt;div&gt;HPU_LPB_OUT&lt;/div&gt;" style="ellipse;whiteSpace=wrap;html=1;aspect=fixed;" vertex="1" parent="1">
          <mxGeometry x="514.38" y="360" width="68.75" height="68.75" as="geometry" />
        </mxCell>
        <mxCell id="VrIYwd6mz3Xe0gdIDtXp-8" value="&lt;div&gt;HPU_HPA_OUT&lt;/div&gt;" style="ellipse;whiteSpace=wrap;html=1;aspect=fixed;" vertex="1" parent="1">
          <mxGeometry x="644.38" y="360" width="68.75" height="68.75" as="geometry" />
        </mxCell>
        <mxCell id="VrIYwd6mz3Xe0gdIDtXp-9" value="&lt;br&gt;&lt;div&gt;HPU_HPB_OUT&lt;/div&gt;" style="ellipse;whiteSpace=wrap;html=1;aspect=fixed;" vertex="1" parent="1">
          <mxGeometry x="750" y="360" width="68.75" height="68.75" as="geometry" />
        </mxCell>
        <mxCell id="VrIYwd6mz3Xe0gdIDtXp-10" value="" style="rounded=0;whiteSpace=wrap;html=1;" vertex="1" parent="1">
          <mxGeometry x="1015.62" y="530" width="210" height="200" as="geometry" />
        </mxCell>
        <mxCell id="VrIYwd6mz3Xe0gdIDtXp-11" value="SCM5_HP_CONS" style="ellipse;whiteSpace=wrap;html=1;aspect=fixed;" vertex="1" parent="1">
          <mxGeometry x="1151.62" y="640" width="67.5" height="67.5" as="geometry" />
        </mxCell>
        <mxCell id="VrIYwd6mz3Xe0gdIDtXp-12" value="&lt;br&gt;&lt;span style=&quot;color: rgb(255, 255, 255); font-family: Helvetica; font-size: 12px; font-style: normal; font-variant-ligatures: normal; font-variant-caps: normal; font-weight: 400; letter-spacing: normal; orphans: 2; text-align: center; text-indent: 0px; text-transform: none; widows: 2; word-spacing: 0px; -webkit-text-stroke-width: 0px; white-space: normal; background-color: rgb(27, 29, 30); text-decoration-thickness: initial; text-decoration-style: initial; text-decoration-color: initial; float: none; display: inline !important;&quot;&gt;SCM5_LP_CONS&lt;/span&gt;&lt;div&gt;&lt;br/&gt;&lt;/div&gt;" style="ellipse;whiteSpace=wrap;html=1;aspect=fixed;" vertex="1" parent="1">
          <mxGeometry x="1037.37" y="640" width="67.5" height="67.5" as="geometry" />
        </mxCell>
        <mxCell id="VrIYwd6mz3Xe0gdIDtXp-13" value="SCM5_LP1_COV" style="rounded=1;whiteSpace=wrap;html=1;" vertex="1" parent="1">
          <mxGeometry x="1037.37" y="540" width="50" height="60" as="geometry" />
        </mxCell>
        <mxCell id="VrIYwd6mz3Xe0gdIDtXp-15" value="SCM5_HP_COV" style="rounded=1;whiteSpace=wrap;html=1;" vertex="1" parent="1">
          <mxGeometry x="1160.37" y="540" width="50" height="60" as="geometry" />
        </mxCell>
        <mxCell id="VrIYwd6mz3Xe0gdIDtXp-55" value="" style="edgeStyle=none;orthogonalLoop=1;jettySize=auto;html=1;endArrow=classic;startArrow=classic;endSize=8;startSize=8;rounded=0;entryX=0;entryY=0.25;entryDx=0;entryDy=0;exitX=1;exitY=0.25;exitDx=0;exitDy=0;" edge="1" parent="1" source="fsJYFwS3ZAUU-XNZBjbN-2" target="fsJYFwS3ZAUU-XNZBjbN-3">
          <mxGeometry width="100" relative="1" as="geometry">
            <mxPoint x="440" y="40" as="sourcePoint" />
            <mxPoint x="510" y="40" as="targetPoint" />
            <Array as="points" />
          </mxGeometry>
        </mxCell>
        <mxCell id="VrIYwd6mz3Xe0gdIDtXp-56" value="&lt;br&gt;&lt;div&gt;HPU_HPB_SPLY&lt;/div&gt;" style="ellipse;whiteSpace=wrap;html=1;aspect=fixed;" vertex="1" parent="1">
          <mxGeometry x="756" y="241.25" width="68.75" height="68.75" as="geometry" />
        </mxCell>
        <mxCell id="VrIYwd6mz3Xe0gdIDtXp-57" value="&lt;br&gt;&lt;div&gt;HPU_LPA_SPLY&lt;/div&gt;" style="ellipse;whiteSpace=wrap;html=1;aspect=fixed;" vertex="1" parent="1">
          <mxGeometry x="400" y="241.25" width="68.75" height="68.75" as="geometry" />
        </mxCell>
        <mxCell id="VrIYwd6mz3Xe0gdIDtXp-60" value="" style="group" vertex="1" connectable="0" parent="1">
          <mxGeometry x="785.62" y="530" width="210" height="200" as="geometry" />
        </mxCell>
        <mxCell id="VrIYwd6mz3Xe0gdIDtXp-24" value="" style="rounded=0;whiteSpace=wrap;html=1;" vertex="1" parent="VrIYwd6mz3Xe0gdIDtXp-60">
          <mxGeometry width="210" height="200" as="geometry" />
        </mxCell>
        <mxCell id="VrIYwd6mz3Xe0gdIDtXp-25" value="SCM4_HP_CONS" style="ellipse;whiteSpace=wrap;html=1;aspect=fixed;" vertex="1" parent="VrIYwd6mz3Xe0gdIDtXp-60">
          <mxGeometry x="140" y="114" width="63.5" height="63.5" as="geometry" />
        </mxCell>
        <mxCell id="VrIYwd6mz3Xe0gdIDtXp-26" value="SCM4_LP_CONS" style="ellipse;whiteSpace=wrap;html=1;aspect=fixed;" vertex="1" parent="VrIYwd6mz3Xe0gdIDtXp-60">
          <mxGeometry x="21.75" y="110" width="67.5" height="67.5" as="geometry" />
        </mxCell>
        <mxCell id="VrIYwd6mz3Xe0gdIDtXp-27" value="SCM4_LP1_COV" style="rounded=1;whiteSpace=wrap;html=1;" vertex="1" parent="VrIYwd6mz3Xe0gdIDtXp-60">
          <mxGeometry x="30.5" y="10" width="50" height="60" as="geometry" />
        </mxCell>
        <mxCell id="VrIYwd6mz3Xe0gdIDtXp-29" value="SCM4_HP_COV" style="rounded=1;whiteSpace=wrap;html=1;" vertex="1" parent="VrIYwd6mz3Xe0gdIDtXp-60">
          <mxGeometry x="144.75" y="10" width="50" height="60" as="geometry" />
        </mxCell>
        <mxCell id="VrIYwd6mz3Xe0gdIDtXp-67" style="edgeStyle=orthogonalEdgeStyle;rounded=0;orthogonalLoop=1;jettySize=auto;html=1;exitX=0.5;exitY=1;exitDx=0;exitDy=0;entryX=0.75;entryY=1;entryDx=0;entryDy=0;" edge="1" parent="VrIYwd6mz3Xe0gdIDtXp-60" source="VrIYwd6mz3Xe0gdIDtXp-27" target="VrIYwd6mz3Xe0gdIDtXp-27">
          <mxGeometry relative="1" as="geometry" />
        </mxCell>
        <mxCell id="VrIYwd6mz3Xe0gdIDtXp-196" value="" style="endArrow=none;html=1;rounded=0;entryX=0.276;entryY=0.874;entryDx=0;entryDy=0;entryPerimeter=0;" edge="1" parent="VrIYwd6mz3Xe0gdIDtXp-60" target="VrIYwd6mz3Xe0gdIDtXp-26">
          <mxGeometry width="50" height="50" relative="1" as="geometry">
            <mxPoint y="240" as="sourcePoint" />
            <mxPoint x="50" y="190" as="targetPoint" />
          </mxGeometry>
        </mxCell>
        <mxCell id="VrIYwd6mz3Xe0gdIDtXp-214" value="" style="endArrow=none;html=1;rounded=0;exitX=0.5;exitY=0;exitDx=0;exitDy=0;" edge="1" parent="VrIYwd6mz3Xe0gdIDtXp-60">
          <mxGeometry width="50" height="50" relative="1" as="geometry">
            <mxPoint x="54.870000000000005" y="110" as="sourcePoint" />
            <mxPoint x="56.120000000000005" y="70" as="targetPoint" />
          </mxGeometry>
        </mxCell>
        <mxCell id="VrIYwd6mz3Xe0gdIDtXp-215" value="" style="endArrow=none;html=1;rounded=0;exitX=0.5;exitY=0;exitDx=0;exitDy=0;" edge="1" parent="VrIYwd6mz3Xe0gdIDtXp-60">
          <mxGeometry width="50" height="50" relative="1" as="geometry">
            <mxPoint x="169.13" y="114" as="sourcePoint" />
            <mxPoint x="170.38" y="74" as="targetPoint" />
          </mxGeometry>
        </mxCell>
        <mxCell id="VrIYwd6mz3Xe0gdIDtXp-61" value="" style="group" vertex="1" connectable="0" parent="1">
          <mxGeometry x="304.75" y="530" width="460" height="200" as="geometry" />
        </mxCell>
        <mxCell id="VrIYwd6mz3Xe0gdIDtXp-38" value="" style="rounded=0;whiteSpace=wrap;html=1;" vertex="1" parent="VrIYwd6mz3Xe0gdIDtXp-61">
          <mxGeometry x="240" width="220" height="200" as="geometry" />
        </mxCell>
        <mxCell id="VrIYwd6mz3Xe0gdIDtXp-39" value="SCM3_HP_CONS" style="ellipse;whiteSpace=wrap;html=1;aspect=fixed;" vertex="1" parent="VrIYwd6mz3Xe0gdIDtXp-61">
          <mxGeometry x="386" y="110" width="67.5" height="67.5" as="geometry" />
        </mxCell>
        <mxCell id="VrIYwd6mz3Xe0gdIDtXp-40" value="SCM3_LP_CONS" style="ellipse;whiteSpace=wrap;html=1;aspect=fixed;" vertex="1" parent="VrIYwd6mz3Xe0gdIDtXp-61">
          <mxGeometry x="263" y="110" width="67.5" height="67.5" as="geometry" />
        </mxCell>
        <mxCell id="VrIYwd6mz3Xe0gdIDtXp-43" value="SCM3_HP_COV" style="rounded=1;whiteSpace=wrap;html=1;" vertex="1" parent="VrIYwd6mz3Xe0gdIDtXp-61">
          <mxGeometry x="394.75" y="10" width="50" height="60" as="geometry" />
        </mxCell>
        <mxCell id="VrIYwd6mz3Xe0gdIDtXp-44" value="SCM3_LP1_COV" style="rounded=1;whiteSpace=wrap;html=1;" vertex="1" parent="VrIYwd6mz3Xe0gdIDtXp-61">
          <mxGeometry x="263" y="10" width="50" height="60" as="geometry" />
        </mxCell>
        <mxCell id="VrIYwd6mz3Xe0gdIDtXp-45" value="" style="rounded=0;whiteSpace=wrap;html=1;" vertex="1" parent="VrIYwd6mz3Xe0gdIDtXp-61">
          <mxGeometry width="210" height="200" as="geometry" />
        </mxCell>
        <mxCell id="VrIYwd6mz3Xe0gdIDtXp-46" value="SCM2_HP_CONS" style="ellipse;whiteSpace=wrap;html=1;aspect=fixed;" vertex="1" parent="VrIYwd6mz3Xe0gdIDtXp-61">
          <mxGeometry x="130" y="110" width="67.5" height="67.5" as="geometry" />
        </mxCell>
        <mxCell id="VrIYwd6mz3Xe0gdIDtXp-47" value="SCM2_LP_CONS" style="ellipse;whiteSpace=wrap;html=1;aspect=fixed;" vertex="1" parent="VrIYwd6mz3Xe0gdIDtXp-61">
          <mxGeometry x="18.619999999999997" y="110" width="67.5" height="67.5" as="geometry" />
        </mxCell>
        <mxCell id="VrIYwd6mz3Xe0gdIDtXp-48" value="SCM2_LP1_COV" style="rounded=1;whiteSpace=wrap;html=1;" vertex="1" parent="VrIYwd6mz3Xe0gdIDtXp-61">
          <mxGeometry x="27.369999999999997" y="10" width="50" height="60" as="geometry" />
        </mxCell>
        <mxCell id="VrIYwd6mz3Xe0gdIDtXp-50" value="SCM2_HP_COV" style="rounded=1;whiteSpace=wrap;html=1;" vertex="1" parent="VrIYwd6mz3Xe0gdIDtXp-61">
          <mxGeometry x="138.75" y="10" width="50" height="60" as="geometry" />
        </mxCell>
        <mxCell id="VrIYwd6mz3Xe0gdIDtXp-210" value="" style="endArrow=none;html=1;rounded=0;exitX=0.5;exitY=0;exitDx=0;exitDy=0;" edge="1" parent="VrIYwd6mz3Xe0gdIDtXp-61" source="VrIYwd6mz3Xe0gdIDtXp-46">
          <mxGeometry width="50" height="50" relative="1" as="geometry">
            <mxPoint x="115.25" y="120" as="sourcePoint" />
            <mxPoint x="165.25" y="70" as="targetPoint" />
          </mxGeometry>
        </mxCell>
        <mxCell id="VrIYwd6mz3Xe0gdIDtXp-211" value="" style="endArrow=none;html=1;rounded=0;exitX=0.5;exitY=0;exitDx=0;exitDy=0;" edge="1" parent="VrIYwd6mz3Xe0gdIDtXp-61">
          <mxGeometry width="50" height="50" relative="1" as="geometry">
            <mxPoint x="51.74000000000001" y="110" as="sourcePoint" />
            <mxPoint x="52.99000000000001" y="70" as="targetPoint" />
          </mxGeometry>
        </mxCell>
        <mxCell id="VrIYwd6mz3Xe0gdIDtXp-212" value="" style="endArrow=none;html=1;rounded=0;exitX=0.5;exitY=0;exitDx=0;exitDy=0;" edge="1" parent="VrIYwd6mz3Xe0gdIDtXp-61">
          <mxGeometry width="50" height="50" relative="1" as="geometry">
            <mxPoint x="287.37" y="110" as="sourcePoint" />
            <mxPoint x="288.62" y="70" as="targetPoint" />
          </mxGeometry>
        </mxCell>
        <mxCell id="VrIYwd6mz3Xe0gdIDtXp-213" value="" style="endArrow=none;html=1;rounded=0;exitX=0.5;exitY=0;exitDx=0;exitDy=0;" edge="1" parent="VrIYwd6mz3Xe0gdIDtXp-61">
          <mxGeometry width="50" height="50" relative="1" as="geometry">
            <mxPoint x="415.25" y="110" as="sourcePoint" />
            <mxPoint x="416.5" y="70" as="targetPoint" />
          </mxGeometry>
        </mxCell>
        <mxCell id="VrIYwd6mz3Xe0gdIDtXp-62" value="" style="rounded=0;whiteSpace=wrap;html=1;" vertex="1" parent="1">
          <mxGeometry x="80" y="530" width="210" height="200" as="geometry" />
        </mxCell>
        <mxCell id="VrIYwd6mz3Xe0gdIDtXp-63" value="SCM1_HP_CONS" style="ellipse;whiteSpace=wrap;html=1;aspect=fixed;" vertex="1" parent="1">
          <mxGeometry x="200" y="640" width="67.5" height="67.5" as="geometry" />
        </mxCell>
        <mxCell id="VrIYwd6mz3Xe0gdIDtXp-64" value="SCM1_LP_CONS" style="ellipse;whiteSpace=wrap;html=1;aspect=fixed;" vertex="1" parent="1">
          <mxGeometry x="90" y="640" width="67.5" height="67.5" as="geometry" />
        </mxCell>
        <mxCell id="VrIYwd6mz3Xe0gdIDtXp-65" value="SCM1_LP1_COV" style="rounded=1;whiteSpace=wrap;html=1;" vertex="1" parent="1">
          <mxGeometry x="98.75" y="540" width="50" height="60" as="geometry" />
        </mxCell>
        <mxCell id="VrIYwd6mz3Xe0gdIDtXp-66" value="SCM1_HP_COV" style="rounded=1;whiteSpace=wrap;html=1;" vertex="1" parent="1">
          <mxGeometry x="208.75" y="540" width="50" height="60" as="geometry" />
        </mxCell>
        <mxCell id="VrIYwd6mz3Xe0gdIDtXp-68" style="edgeStyle=orthogonalEdgeStyle;rounded=0;orthogonalLoop=1;jettySize=auto;html=1;exitX=0.5;exitY=0;exitDx=0;exitDy=0;entryX=0.46;entryY=-0.01;entryDx=0;entryDy=0;entryPerimeter=0;" edge="1" parent="1" source="VrIYwd6mz3Xe0gdIDtXp-62" target="VrIYwd6mz3Xe0gdIDtXp-62">
          <mxGeometry relative="1" as="geometry" />
        </mxCell>
        <mxCell id="VrIYwd6mz3Xe0gdIDtXp-73" value="SCM1_RET" style="ellipse;whiteSpace=wrap;html=1;aspect=fixed;" vertex="1" parent="1">
          <mxGeometry x="-150" y="336.25" width="67.5" height="67.5" as="geometry" />
        </mxCell>
        <mxCell id="VrIYwd6mz3Xe0gdIDtXp-74" value="SCM2_RET" style="ellipse;whiteSpace=wrap;html=1;aspect=fixed;" vertex="1" parent="1">
          <mxGeometry x="-150" y="408.75" width="67.5" height="67.5" as="geometry" />
        </mxCell>
        <mxCell id="VrIYwd6mz3Xe0gdIDtXp-75" value="SCM3_RET" style="ellipse;whiteSpace=wrap;html=1;aspect=fixed;" vertex="1" parent="1">
          <mxGeometry x="-150" y="196.25" width="67.5" height="67.5" as="geometry" />
        </mxCell>
        <mxCell id="VrIYwd6mz3Xe0gdIDtXp-76" value="SCM4_RET" style="ellipse;whiteSpace=wrap;html=1;aspect=fixed;" vertex="1" parent="1">
          <mxGeometry x="-150" y="120" width="67.5" height="67.5" as="geometry" />
        </mxCell>
        <mxCell id="VrIYwd6mz3Xe0gdIDtXp-77" value="SCM4_RET" style="ellipse;whiteSpace=wrap;html=1;aspect=fixed;" vertex="1" parent="1">
          <mxGeometry x="-150" y="266.25" width="67.5" height="67.5" as="geometry" />
        </mxCell>
        <mxCell id="VrIYwd6mz3Xe0gdIDtXp-94" value="" style="group" vertex="1" connectable="0" parent="1">
          <mxGeometry x="320" y="780" width="152.5" height="200" as="geometry" />
        </mxCell>
        <mxCell id="VrIYwd6mz3Xe0gdIDtXp-121" value="" style="group" vertex="1" connectable="0" parent="VrIYwd6mz3Xe0gdIDtXp-94">
          <mxGeometry x="50" y="-10" width="62.5" height="200" as="geometry" />
        </mxCell>
        <mxCell id="VrIYwd6mz3Xe0gdIDtXp-91" value="P2_PDV" style="whiteSpace=wrap;html=1;aspect=fixed;" vertex="1" parent="VrIYwd6mz3Xe0gdIDtXp-121">
          <mxGeometry width="60" height="60" as="geometry" />
        </mxCell>
        <mxCell id="VrIYwd6mz3Xe0gdIDtXp-92" value="P2 TDV" style="whiteSpace=wrap;html=1;aspect=fixed;" vertex="1" parent="VrIYwd6mz3Xe0gdIDtXp-121">
          <mxGeometry x="2.5" y="70" width="60" height="60" as="geometry" />
        </mxCell>
        <mxCell id="VrIYwd6mz3Xe0gdIDtXp-93" value="P2_SCSSV" style="whiteSpace=wrap;html=1;aspect=fixed;" vertex="1" parent="VrIYwd6mz3Xe0gdIDtXp-121">
          <mxGeometry x="2.5" y="140" width="60" height="60" as="geometry" />
        </mxCell>
        <mxCell id="VrIYwd6mz3Xe0gdIDtXp-184" value="" style="endArrow=none;html=1;rounded=0;" edge="1" parent="VrIYwd6mz3Xe0gdIDtXp-121">
          <mxGeometry width="50" height="50" relative="1" as="geometry">
            <mxPoint y="70" as="sourcePoint" />
            <mxPoint x="-10" y="-70" as="targetPoint" />
          </mxGeometry>
        </mxCell>
        <mxCell id="VrIYwd6mz3Xe0gdIDtXp-180" value="" style="endArrow=none;html=1;rounded=0;entryX=0;entryY=1;entryDx=0;entryDy=0;" edge="1" parent="VrIYwd6mz3Xe0gdIDtXp-94" target="VrIYwd6mz3Xe0gdIDtXp-47">
          <mxGeometry width="50" height="50" relative="1" as="geometry">
            <mxPoint x="-10" y="60" as="sourcePoint" />
            <mxPoint x="40" y="10" as="targetPoint" />
          </mxGeometry>
        </mxCell>
        <mxCell id="VrIYwd6mz3Xe0gdIDtXp-181" value="" style="endArrow=none;html=1;rounded=0;entryX=0.252;entryY=0.889;entryDx=0;entryDy=0;entryPerimeter=0;" edge="1" parent="VrIYwd6mz3Xe0gdIDtXp-94" target="VrIYwd6mz3Xe0gdIDtXp-47">
          <mxGeometry width="50" height="50" relative="1" as="geometry">
            <mxPoint x="-10" y="130" as="sourcePoint" />
            <mxPoint x="40" y="80" as="targetPoint" />
          </mxGeometry>
        </mxCell>
        <mxCell id="VrIYwd6mz3Xe0gdIDtXp-182" value="" style="endArrow=none;html=1;rounded=0;entryX=0.326;entryY=0.904;entryDx=0;entryDy=0;entryPerimeter=0;" edge="1" parent="VrIYwd6mz3Xe0gdIDtXp-94" target="VrIYwd6mz3Xe0gdIDtXp-47">
          <mxGeometry width="50" height="50" relative="1" as="geometry">
            <mxPoint x="-10" y="220" as="sourcePoint" />
            <mxPoint x="40" y="170" as="targetPoint" />
          </mxGeometry>
        </mxCell>
        <mxCell id="VrIYwd6mz3Xe0gdIDtXp-95" value="" style="group" vertex="1" connectable="0" parent="1">
          <mxGeometry x="80" y="790" width="152.5" height="200" as="geometry" />
        </mxCell>
        <mxCell id="VrIYwd6mz3Xe0gdIDtXp-120" value="" style="group" vertex="1" connectable="0" parent="VrIYwd6mz3Xe0gdIDtXp-95">
          <mxGeometry x="50" y="-10" width="62.5" height="200" as="geometry" />
        </mxCell>
        <mxCell id="VrIYwd6mz3Xe0gdIDtXp-85" value="P1_PDV" style="whiteSpace=wrap;html=1;aspect=fixed;" vertex="1" parent="VrIYwd6mz3Xe0gdIDtXp-120">
          <mxGeometry width="60" height="60" as="geometry" />
        </mxCell>
        <mxCell id="VrIYwd6mz3Xe0gdIDtXp-86" value="P1 TDV" style="whiteSpace=wrap;html=1;aspect=fixed;" vertex="1" parent="VrIYwd6mz3Xe0gdIDtXp-120">
          <mxGeometry y="70" width="60" height="60" as="geometry" />
        </mxCell>
        <mxCell id="VrIYwd6mz3Xe0gdIDtXp-87" value="P1_SCSSV" style="whiteSpace=wrap;html=1;aspect=fixed;" vertex="1" parent="VrIYwd6mz3Xe0gdIDtXp-120">
          <mxGeometry x="2.5" y="140" width="60" height="60" as="geometry" />
        </mxCell>
        <mxCell id="VrIYwd6mz3Xe0gdIDtXp-173" value="" style="endArrow=none;html=1;rounded=0;" edge="1" parent="VrIYwd6mz3Xe0gdIDtXp-120">
          <mxGeometry width="50" height="50" relative="1" as="geometry">
            <mxPoint x="-20" y="80" as="sourcePoint" />
            <mxPoint x="-20" y="-80" as="targetPoint" />
          </mxGeometry>
        </mxCell>
        <mxCell id="VrIYwd6mz3Xe0gdIDtXp-96" value="P3_PMV" style="whiteSpace=wrap;html=1;aspect=fixed;" vertex="1" parent="1">
          <mxGeometry x="490" y="770" width="60" height="60" as="geometry" />
        </mxCell>
        <mxCell id="VrIYwd6mz3Xe0gdIDtXp-97" value="P3_PWV" style="whiteSpace=wrap;html=1;aspect=fixed;" vertex="1" parent="1">
          <mxGeometry x="490" y="840" width="60" height="60" as="geometry" />
        </mxCell>
        <mxCell id="VrIYwd6mz3Xe0gdIDtXp-98" value="P3_AMV" style="whiteSpace=wrap;html=1;aspect=fixed;" vertex="1" parent="1">
          <mxGeometry x="490" y="910" width="60" height="60" as="geometry" />
        </mxCell>
        <mxCell id="VrIYwd6mz3Xe0gdIDtXp-102" value="I1_PMV" style="whiteSpace=wrap;html=1;aspect=fixed;" vertex="1" parent="1">
          <mxGeometry x="751.63" y="770" width="60" height="60" as="geometry" />
        </mxCell>
        <mxCell id="VrIYwd6mz3Xe0gdIDtXp-103" value="I1_PWV" style="whiteSpace=wrap;html=1;aspect=fixed;" vertex="1" parent="1">
          <mxGeometry x="751.63" y="840" width="60" height="60" as="geometry" />
        </mxCell>
        <mxCell id="VrIYwd6mz3Xe0gdIDtXp-104" value="I1_AMV" style="whiteSpace=wrap;html=1;aspect=fixed;" vertex="1" parent="1">
          <mxGeometry x="758.75" y="910" width="60" height="60" as="geometry" />
        </mxCell>
        <mxCell id="VrIYwd6mz3Xe0gdIDtXp-107" value="I1_SCSSV" style="whiteSpace=wrap;html=1;aspect=fixed;" vertex="1" parent="1">
          <mxGeometry x="880" y="770" width="60" height="60" as="geometry" />
        </mxCell>
        <mxCell id="VrIYwd6mz3Xe0gdIDtXp-108" value="I2_PMV" style="whiteSpace=wrap;html=1;aspect=fixed;" vertex="1" parent="1">
          <mxGeometry x="979.9999999999999" y="770" width="60" height="60" as="geometry" />
        </mxCell>
        <mxCell id="VrIYwd6mz3Xe0gdIDtXp-109" value="I2_PWV" style="whiteSpace=wrap;html=1;aspect=fixed;" vertex="1" parent="1">
          <mxGeometry x="979.9999999999999" y="840" width="60" height="60" as="geometry" />
        </mxCell>
        <mxCell id="VrIYwd6mz3Xe0gdIDtXp-110" value="I2_AMV" style="whiteSpace=wrap;html=1;aspect=fixed;" vertex="1" parent="1">
          <mxGeometry x="991.1299999999999" y="910" width="60" height="60" as="geometry" />
        </mxCell>
        <mxCell id="VrIYwd6mz3Xe0gdIDtXp-111" value="I2_SCSSV" style="whiteSpace=wrap;html=1;aspect=fixed;" vertex="1" parent="1">
          <mxGeometry x="1160.37" y="760" width="60" height="60" as="geometry" />
        </mxCell>
        <mxCell id="VrIYwd6mz3Xe0gdIDtXp-113" value="&lt;span style=&quot;font-family: Consolas, &amp;quot;Courier New&amp;quot;, monospace; font-size: 14px; text-align: start; white-space: pre;&quot;&gt;&lt;b style=&quot;&quot;&gt;&lt;font style=&quot;color: light-dark(rgb(204, 204, 204), rgb(250, 250, 250));&quot;&gt;FCV_CPI&lt;/font&gt;&lt;/b&gt;&lt;/span&gt;" style="whiteSpace=wrap;html=1;" vertex="1" parent="1">
          <mxGeometry x="-140" y="530" width="140" height="100" as="geometry" />
        </mxCell>
        <mxCell id="VrIYwd6mz3Xe0gdIDtXp-117" value="P3_PCV" style="whiteSpace=wrap;html=1;aspect=fixed;" vertex="1" parent="1">
          <mxGeometry x="490" y="980" width="60" height="60" as="geometry" />
        </mxCell>
        <mxCell id="VrIYwd6mz3Xe0gdIDtXp-118" value="I1_PCV" style="whiteSpace=wrap;html=1;aspect=fixed;" vertex="1" parent="1">
          <mxGeometry x="764.75" y="990" width="60" height="60" as="geometry" />
        </mxCell>
        <mxCell id="VrIYwd6mz3Xe0gdIDtXp-119" value="I2_PCV" style="whiteSpace=wrap;html=1;aspect=fixed;" vertex="1" parent="1">
          <mxGeometry x="1008.4999999999999" y="990" width="60" height="60" as="geometry" />
        </mxCell>
        <mxCell id="VrIYwd6mz3Xe0gdIDtXp-122" value="" style="group" vertex="1" connectable="0" parent="1">
          <mxGeometry x="640" y="770" width="62.5" height="200" as="geometry" />
        </mxCell>
        <mxCell id="VrIYwd6mz3Xe0gdIDtXp-99" value="P3_PDV" style="whiteSpace=wrap;html=1;aspect=fixed;" vertex="1" parent="VrIYwd6mz3Xe0gdIDtXp-122">
          <mxGeometry width="60" height="60" as="geometry" />
        </mxCell>
        <mxCell id="VrIYwd6mz3Xe0gdIDtXp-100" value="P3 TDV" style="whiteSpace=wrap;html=1;aspect=fixed;" vertex="1" parent="VrIYwd6mz3Xe0gdIDtXp-122">
          <mxGeometry x="2.5" y="70" width="60" height="60" as="geometry" />
        </mxCell>
        <mxCell id="VrIYwd6mz3Xe0gdIDtXp-101" value="P3_SCSSV" style="whiteSpace=wrap;html=1;aspect=fixed;" vertex="1" parent="VrIYwd6mz3Xe0gdIDtXp-122">
          <mxGeometry x="2.5" y="140" width="60" height="60" as="geometry" />
        </mxCell>
        <mxCell id="VrIYwd6mz3Xe0gdIDtXp-194" value="" style="endArrow=none;html=1;rounded=0;entryX=0.5;entryY=1;entryDx=0;entryDy=0;" edge="1" parent="VrIYwd6mz3Xe0gdIDtXp-122" target="VrIYwd6mz3Xe0gdIDtXp-40">
          <mxGeometry width="50" height="50" relative="1" as="geometry">
            <mxPoint y="70" as="sourcePoint" />
            <mxPoint x="50" y="20" as="targetPoint" />
          </mxGeometry>
        </mxCell>
        <mxCell id="VrIYwd6mz3Xe0gdIDtXp-124" value="" style="endArrow=none;html=1;rounded=0;" edge="1" parent="1">
          <mxGeometry width="50" height="50" relative="1" as="geometry">
            <mxPoint x="-82.5" y="150" as="sourcePoint" />
            <mxPoint y="150" as="targetPoint" />
          </mxGeometry>
        </mxCell>
        <mxCell id="VrIYwd6mz3Xe0gdIDtXp-126" value="" style="endArrow=none;html=1;rounded=0;" edge="1" parent="1">
          <mxGeometry width="50" height="50" relative="1" as="geometry">
            <mxPoint x="-80" y="230" as="sourcePoint" />
            <mxPoint y="230" as="targetPoint" />
          </mxGeometry>
        </mxCell>
        <mxCell id="VrIYwd6mz3Xe0gdIDtXp-127" value="" style="endArrow=none;html=1;rounded=0;" edge="1" parent="1">
          <mxGeometry width="50" height="50" relative="1" as="geometry">
            <mxPoint x="-80" y="299.5" as="sourcePoint" />
            <mxPoint y="299.5" as="targetPoint" />
          </mxGeometry>
        </mxCell>
        <mxCell id="VrIYwd6mz3Xe0gdIDtXp-128" value="" style="endArrow=none;html=1;rounded=0;" edge="1" parent="1">
          <mxGeometry width="50" height="50" relative="1" as="geometry">
            <mxPoint x="-80" y="369.5" as="sourcePoint" />
            <mxPoint y="369.5" as="targetPoint" />
          </mxGeometry>
        </mxCell>
        <mxCell id="VrIYwd6mz3Xe0gdIDtXp-129" value="" style="endArrow=none;html=1;rounded=0;" edge="1" parent="1">
          <mxGeometry width="50" height="50" relative="1" as="geometry">
            <mxPoint x="-80" y="442" as="sourcePoint" />
            <mxPoint y="442" as="targetPoint" />
          </mxGeometry>
        </mxCell>
        <mxCell id="VrIYwd6mz3Xe0gdIDtXp-130" value="" style="endArrow=none;html=1;rounded=0;" edge="1" parent="1">
          <mxGeometry width="50" height="50" relative="1" as="geometry">
            <mxPoint y="440" as="sourcePoint" />
            <mxPoint y="50" as="targetPoint" />
          </mxGeometry>
        </mxCell>
        <mxCell id="VrIYwd6mz3Xe0gdIDtXp-131" value="" style="endArrow=none;html=1;rounded=0;" edge="1" parent="1">
          <mxGeometry width="50" height="50" relative="1" as="geometry">
            <mxPoint x="-10" y="540" as="sourcePoint" />
            <mxPoint x="20" y="540" as="targetPoint" />
          </mxGeometry>
        </mxCell>
        <mxCell id="VrIYwd6mz3Xe0gdIDtXp-132" value="" style="endArrow=none;html=1;rounded=0;entryX=0;entryY=0.5;entryDx=0;entryDy=0;" edge="1" parent="1" target="fsJYFwS3ZAUU-XNZBjbN-2">
          <mxGeometry width="50" height="50" relative="1" as="geometry">
            <mxPoint y="50" as="sourcePoint" />
            <mxPoint x="50" as="targetPoint" />
          </mxGeometry>
        </mxCell>
        <mxCell id="VrIYwd6mz3Xe0gdIDtXp-133" value="" style="endArrow=none;html=1;rounded=0;" edge="1" parent="1">
          <mxGeometry width="50" height="50" relative="1" as="geometry">
            <mxPoint x="20" y="540" as="sourcePoint" />
            <mxPoint x="20" y="380" as="targetPoint" />
          </mxGeometry>
        </mxCell>
        <mxCell id="VrIYwd6mz3Xe0gdIDtXp-135" value="" style="endArrow=none;html=1;rounded=0;entryX=0.01;entryY=0.33;entryDx=0;entryDy=0;entryPerimeter=0;" edge="1" parent="1" target="VrIYwd6mz3Xe0gdIDtXp-6">
          <mxGeometry width="50" height="50" relative="1" as="geometry">
            <mxPoint x="20" y="380" as="sourcePoint" />
            <mxPoint x="70" y="330" as="targetPoint" />
          </mxGeometry>
        </mxCell>
        <mxCell id="VrIYwd6mz3Xe0gdIDtXp-136" value="" style="endArrow=none;html=1;rounded=0;entryX=0.094;entryY=0.696;entryDx=0;entryDy=0;entryPerimeter=0;" edge="1" parent="1" target="VrIYwd6mz3Xe0gdIDtXp-2">
          <mxGeometry width="50" height="50" relative="1" as="geometry">
            <mxPoint x="440" y="241.25" as="sourcePoint" />
            <mxPoint x="500" y="180" as="targetPoint" />
          </mxGeometry>
        </mxCell>
        <mxCell id="VrIYwd6mz3Xe0gdIDtXp-137" value="" style="endArrow=none;html=1;rounded=0;" edge="1" parent="1">
          <mxGeometry width="50" height="50" relative="1" as="geometry">
            <mxPoint x="553" y="240" as="sourcePoint" />
            <mxPoint x="552.75" y="186.18" as="targetPoint" />
          </mxGeometry>
        </mxCell>
        <mxCell id="VrIYwd6mz3Xe0gdIDtXp-140" value="" style="endArrow=none;html=1;rounded=0;" edge="1" parent="1" source="VrIYwd6mz3Xe0gdIDtXp-6">
          <mxGeometry width="50" height="50" relative="1" as="geometry">
            <mxPoint x="390" y="370" as="sourcePoint" />
            <mxPoint x="440" y="320" as="targetPoint" />
          </mxGeometry>
        </mxCell>
        <mxCell id="VrIYwd6mz3Xe0gdIDtXp-141" value="" style="endArrow=none;html=1;rounded=0;exitX=0.756;exitY=0.136;exitDx=0;exitDy=0;exitPerimeter=0;" edge="1" parent="1" source="VrIYwd6mz3Xe0gdIDtXp-6">
          <mxGeometry width="50" height="50" relative="1" as="geometry">
            <mxPoint x="530" y="350" as="sourcePoint" />
            <mxPoint x="533" y="310" as="targetPoint" />
          </mxGeometry>
        </mxCell>
        <mxCell id="VrIYwd6mz3Xe0gdIDtXp-142" value="" style="endArrow=none;html=1;rounded=0;exitX=0.314;exitY=0.048;exitDx=0;exitDy=0;exitPerimeter=0;entryX=0.737;entryY=0.922;entryDx=0;entryDy=0;entryPerimeter=0;" edge="1" parent="1" source="VrIYwd6mz3Xe0gdIDtXp-7" target="VrIYwd6mz3Xe0gdIDtXp-57">
          <mxGeometry width="50" height="50" relative="1" as="geometry">
            <mxPoint x="409.38" y="360" as="sourcePoint" />
            <mxPoint x="459.38" y="310" as="targetPoint" />
          </mxGeometry>
        </mxCell>
        <mxCell id="VrIYwd6mz3Xe0gdIDtXp-143" value="" style="endArrow=none;html=1;rounded=0;exitX=0.693;exitY=-0.01;exitDx=0;exitDy=0;exitPerimeter=0;" edge="1" parent="1" source="VrIYwd6mz3Xe0gdIDtXp-7">
          <mxGeometry width="50" height="50" relative="1" as="geometry">
            <mxPoint x="570" y="370" as="sourcePoint" />
            <mxPoint x="560" y="300" as="targetPoint" />
          </mxGeometry>
        </mxCell>
        <mxCell id="VrIYwd6mz3Xe0gdIDtXp-144" value="" style="endArrow=none;html=1;rounded=0;exitX=0.693;exitY=-0.01;exitDx=0;exitDy=0;exitPerimeter=0;" edge="1" parent="1">
          <mxGeometry width="50" height="50" relative="1" as="geometry">
            <mxPoint x="807.75" y="369" as="sourcePoint" />
            <mxPoint x="805.75" y="310" as="targetPoint" />
          </mxGeometry>
        </mxCell>
        <mxCell id="VrIYwd6mz3Xe0gdIDtXp-146" value="" style="endArrow=none;html=1;rounded=0;exitX=0;exitY=0;exitDx=0;exitDy=0;" edge="1" parent="1" source="VrIYwd6mz3Xe0gdIDtXp-8">
          <mxGeometry width="50" height="50" relative="1" as="geometry">
            <mxPoint x="610" y="350" as="sourcePoint" />
            <mxPoint x="660" y="300" as="targetPoint" />
          </mxGeometry>
        </mxCell>
        <mxCell id="VrIYwd6mz3Xe0gdIDtXp-147" value="" style="endArrow=none;html=1;rounded=0;exitX=1;exitY=0;exitDx=0;exitDy=0;" edge="1" parent="1" source="VrIYwd6mz3Xe0gdIDtXp-8">
          <mxGeometry width="50" height="50" relative="1" as="geometry">
            <mxPoint x="730" y="360" as="sourcePoint" />
            <mxPoint x="780" y="310" as="targetPoint" />
          </mxGeometry>
        </mxCell>
        <mxCell id="VrIYwd6mz3Xe0gdIDtXp-149" value="" style="endArrow=none;html=1;rounded=0;exitX=0.281;exitY=0.068;exitDx=0;exitDy=0;exitPerimeter=0;" edge="1" parent="1" source="VrIYwd6mz3Xe0gdIDtXp-9">
          <mxGeometry width="50" height="50" relative="1" as="geometry">
            <mxPoint x="660" y="350" as="sourcePoint" />
            <mxPoint x="710" y="300" as="targetPoint" />
          </mxGeometry>
        </mxCell>
        <mxCell id="VrIYwd6mz3Xe0gdIDtXp-150" value="" style="endArrow=none;html=1;rounded=0;" edge="1" parent="1">
          <mxGeometry width="50" height="50" relative="1" as="geometry">
            <mxPoint x="690" y="240" as="sourcePoint" />
            <mxPoint x="690" y="191" as="targetPoint" />
          </mxGeometry>
        </mxCell>
        <mxCell id="VrIYwd6mz3Xe0gdIDtXp-151" value="" style="endArrow=none;html=1;rounded=0;exitX=0.611;exitY=0.021;exitDx=0;exitDy=0;exitPerimeter=0;" edge="1" parent="1" source="VrIYwd6mz3Xe0gdIDtXp-56">
          <mxGeometry width="50" height="50" relative="1" as="geometry">
            <mxPoint x="671.5" y="236.18" as="sourcePoint" />
            <mxPoint x="721.5" y="186.18" as="targetPoint" />
          </mxGeometry>
        </mxCell>
        <mxCell id="VrIYwd6mz3Xe0gdIDtXp-152" value="" style="endArrow=none;html=1;rounded=0;entryX=0.122;entryY=0.967;entryDx=0;entryDy=0;entryPerimeter=0;" edge="1" parent="1" target="fsJYFwS3ZAUU-XNZBjbN-3">
          <mxGeometry width="50" height="50" relative="1" as="geometry">
            <mxPoint x="540" y="110" as="sourcePoint" />
            <mxPoint x="590" y="60" as="targetPoint" />
          </mxGeometry>
        </mxCell>
        <mxCell id="VrIYwd6mz3Xe0gdIDtXp-153" value="" style="endArrow=none;html=1;rounded=0;entryX=0.478;entryY=1;entryDx=0;entryDy=0;entryPerimeter=0;" edge="1" parent="1" target="fsJYFwS3ZAUU-XNZBjbN-3">
          <mxGeometry width="50" height="50" relative="1" as="geometry">
            <mxPoint x="706" y="110" as="sourcePoint" />
            <mxPoint x="756" y="60" as="targetPoint" />
          </mxGeometry>
        </mxCell>
        <mxCell id="VrIYwd6mz3Xe0gdIDtXp-154" value="" style="endArrow=none;html=1;rounded=0;entryX=0;entryY=0.727;entryDx=0;entryDy=0;entryPerimeter=0;" edge="1" parent="1" target="VrIYwd6mz3Xe0gdIDtXp-6">
          <mxGeometry width="50" height="50" relative="1" as="geometry">
            <mxPoint x="107.5" y="540" as="sourcePoint" />
            <mxPoint x="157.5" y="490" as="targetPoint" />
          </mxGeometry>
        </mxCell>
        <mxCell id="VrIYwd6mz3Xe0gdIDtXp-155" value="" style="endArrow=none;html=1;rounded=0;" edge="1" parent="1">
          <mxGeometry width="50" height="50" relative="1" as="geometry">
            <mxPoint x="140" y="540" as="sourcePoint" />
            <mxPoint x="510" y="420" as="targetPoint" />
          </mxGeometry>
        </mxCell>
        <mxCell id="VrIYwd6mz3Xe0gdIDtXp-156" value="" style="endArrow=none;html=1;rounded=0;" edge="1" parent="1">
          <mxGeometry width="50" height="50" relative="1" as="geometry">
            <mxPoint x="217.5" y="540" as="sourcePoint" />
            <mxPoint x="640" y="420" as="targetPoint" />
          </mxGeometry>
        </mxCell>
        <mxCell id="VrIYwd6mz3Xe0gdIDtXp-157" value="" style="endArrow=none;html=1;rounded=0;entryX=0;entryY=1;entryDx=0;entryDy=0;" edge="1" parent="1" target="VrIYwd6mz3Xe0gdIDtXp-9">
          <mxGeometry width="50" height="50" relative="1" as="geometry">
            <mxPoint x="258.75" y="540" as="sourcePoint" />
            <mxPoint x="308.75" y="490" as="targetPoint" />
          </mxGeometry>
        </mxCell>
        <mxCell id="VrIYwd6mz3Xe0gdIDtXp-158" value="" style="endArrow=none;html=1;rounded=0;exitX=0.5;exitY=0;exitDx=0;exitDy=0;" edge="1" parent="1" source="VrIYwd6mz3Xe0gdIDtXp-64">
          <mxGeometry width="50" height="50" relative="1" as="geometry">
            <mxPoint x="80" y="650" as="sourcePoint" />
            <mxPoint x="130" y="600" as="targetPoint" />
          </mxGeometry>
        </mxCell>
        <mxCell id="VrIYwd6mz3Xe0gdIDtXp-159" value="" style="endArrow=none;html=1;rounded=0;" edge="1" parent="1">
          <mxGeometry width="50" height="50" relative="1" as="geometry">
            <mxPoint x="232.5" y="640" as="sourcePoint" />
            <mxPoint x="235.5" y="600" as="targetPoint" />
          </mxGeometry>
        </mxCell>
        <mxCell id="VrIYwd6mz3Xe0gdIDtXp-82" value="P1_PMV" style="whiteSpace=wrap;html=1;aspect=fixed;" vertex="1" parent="1">
          <mxGeometry x="-50" y="780" width="60" height="60" as="geometry" />
        </mxCell>
        <mxCell id="VrIYwd6mz3Xe0gdIDtXp-83" value="P1_PWV" style="whiteSpace=wrap;html=1;aspect=fixed;" vertex="1" parent="1">
          <mxGeometry x="-50" y="850" width="60" height="60" as="geometry" />
        </mxCell>
        <mxCell id="VrIYwd6mz3Xe0gdIDtXp-84" value="P1_AMV" style="whiteSpace=wrap;html=1;aspect=fixed;" vertex="1" parent="1">
          <mxGeometry x="-50" y="920" width="60" height="60" as="geometry" />
        </mxCell>
        <mxCell id="VrIYwd6mz3Xe0gdIDtXp-115" value="P1_PCV" style="whiteSpace=wrap;html=1;aspect=fixed;" vertex="1" parent="1">
          <mxGeometry x="-50" y="1000" width="60" height="60" as="geometry" />
        </mxCell>
        <mxCell id="VrIYwd6mz3Xe0gdIDtXp-167" value="" style="endArrow=none;html=1;rounded=0;entryX=0.059;entryY=0.681;entryDx=0;entryDy=0;entryPerimeter=0;" edge="1" parent="1" target="VrIYwd6mz3Xe0gdIDtXp-64">
          <mxGeometry width="50" height="50" relative="1" as="geometry">
            <mxPoint x="-30" y="780" as="sourcePoint" />
            <mxPoint x="20" y="730" as="targetPoint" />
          </mxGeometry>
        </mxCell>
        <mxCell id="VrIYwd6mz3Xe0gdIDtXp-169" value="" style="endArrow=none;html=1;rounded=0;entryX=0;entryY=1;entryDx=0;entryDy=0;" edge="1" parent="1" target="VrIYwd6mz3Xe0gdIDtXp-64">
          <mxGeometry width="50" height="50" relative="1" as="geometry">
            <mxPoint x="10" y="850" as="sourcePoint" />
            <mxPoint x="60" y="800" as="targetPoint" />
          </mxGeometry>
        </mxCell>
        <mxCell id="VrIYwd6mz3Xe0gdIDtXp-170" value="" style="endArrow=none;html=1;rounded=0;entryX=0;entryY=1;entryDx=0;entryDy=0;" edge="1" parent="1" target="VrIYwd6mz3Xe0gdIDtXp-64">
          <mxGeometry width="50" height="50" relative="1" as="geometry">
            <mxPoint x="10" y="920" as="sourcePoint" />
            <mxPoint x="60" y="870" as="targetPoint" />
          </mxGeometry>
        </mxCell>
        <mxCell id="VrIYwd6mz3Xe0gdIDtXp-171" value="" style="endArrow=none;html=1;rounded=0;entryX=0;entryY=1;entryDx=0;entryDy=0;" edge="1" parent="1" target="VrIYwd6mz3Xe0gdIDtXp-64">
          <mxGeometry width="50" height="50" relative="1" as="geometry">
            <mxPoint x="10" y="1000" as="sourcePoint" />
            <mxPoint x="60" y="950" as="targetPoint" />
          </mxGeometry>
        </mxCell>
        <mxCell id="VrIYwd6mz3Xe0gdIDtXp-172" value="" style="endArrow=none;html=1;rounded=0;entryX=0.637;entryY=0.993;entryDx=0;entryDy=0;entryPerimeter=0;exitX=0;exitY=0;exitDx=0;exitDy=0;" edge="1" parent="1" source="VrIYwd6mz3Xe0gdIDtXp-85" target="VrIYwd6mz3Xe0gdIDtXp-64">
          <mxGeometry width="50" height="50" relative="1" as="geometry">
            <mxPoint x="133" y="770" as="sourcePoint" />
            <mxPoint x="180" y="730" as="targetPoint" />
          </mxGeometry>
        </mxCell>
        <mxCell id="VrIYwd6mz3Xe0gdIDtXp-174" value="" style="endArrow=none;html=1;rounded=0;entryX=0;entryY=0.15;entryDx=0;entryDy=0;entryPerimeter=0;" edge="1" parent="1" target="VrIYwd6mz3Xe0gdIDtXp-86">
          <mxGeometry width="50" height="50" relative="1" as="geometry">
            <mxPoint x="110" y="860" as="sourcePoint" />
            <mxPoint x="470" y="840" as="targetPoint" />
          </mxGeometry>
        </mxCell>
        <mxCell id="VrIYwd6mz3Xe0gdIDtXp-175" value="" style="endArrow=none;html=1;rounded=0;entryX=0.5;entryY=1;entryDx=0;entryDy=0;" edge="1" parent="1" target="VrIYwd6mz3Xe0gdIDtXp-63">
          <mxGeometry width="50" height="50" relative="1" as="geometry">
            <mxPoint x="230" y="950" as="sourcePoint" />
            <mxPoint x="470" y="840" as="targetPoint" />
          </mxGeometry>
        </mxCell>
        <mxCell id="VrIYwd6mz3Xe0gdIDtXp-177" value="" style="endArrow=none;html=1;rounded=0;exitX=1;exitY=0.5;exitDx=0;exitDy=0;" edge="1" parent="1" source="VrIYwd6mz3Xe0gdIDtXp-87">
          <mxGeometry width="50" height="50" relative="1" as="geometry">
            <mxPoint x="420" y="890" as="sourcePoint" />
            <mxPoint x="230" y="950" as="targetPoint" />
          </mxGeometry>
        </mxCell>
        <mxCell id="VrIYwd6mz3Xe0gdIDtXp-88" value="P2_PMV&lt;span style=&quot;white-space: pre;&quot;&gt;&#x9;&lt;/span&gt;" style="whiteSpace=wrap;html=1;aspect=fixed;" vertex="1" parent="1">
          <mxGeometry x="250" y="770" width="60" height="60" as="geometry" />
        </mxCell>
        <mxCell id="VrIYwd6mz3Xe0gdIDtXp-89" value="P2_PWV" style="whiteSpace=wrap;html=1;aspect=fixed;" vertex="1" parent="1">
          <mxGeometry x="250" y="840" width="60" height="60" as="geometry" />
        </mxCell>
        <mxCell id="VrIYwd6mz3Xe0gdIDtXp-90" value="P2_AMV" style="whiteSpace=wrap;html=1;aspect=fixed;" vertex="1" parent="1">
          <mxGeometry x="250" y="910" width="60" height="60" as="geometry" />
        </mxCell>
        <mxCell id="VrIYwd6mz3Xe0gdIDtXp-116" value="P2_PCV" style="whiteSpace=wrap;html=1;aspect=fixed;" vertex="1" parent="1">
          <mxGeometry x="250" y="1000" width="60" height="60" as="geometry" />
        </mxCell>
        <mxCell id="VrIYwd6mz3Xe0gdIDtXp-179" value="" style="endArrow=none;html=1;rounded=0;entryX=0.059;entryY=0.696;entryDx=0;entryDy=0;entryPerimeter=0;" edge="1" parent="1" target="VrIYwd6mz3Xe0gdIDtXp-47">
          <mxGeometry width="50" height="50" relative="1" as="geometry">
            <mxPoint x="255" y="770" as="sourcePoint" />
            <mxPoint x="305" y="720" as="targetPoint" />
          </mxGeometry>
        </mxCell>
        <mxCell id="VrIYwd6mz3Xe0gdIDtXp-185" value="" style="endArrow=none;html=1;rounded=0;entryX=0.637;entryY=0.948;entryDx=0;entryDy=0;entryPerimeter=0;" edge="1" parent="1" target="VrIYwd6mz3Xe0gdIDtXp-47">
          <mxGeometry width="50" height="50" relative="1" as="geometry">
            <mxPoint x="380" y="770" as="sourcePoint" />
            <mxPoint x="430" y="720" as="targetPoint" />
          </mxGeometry>
        </mxCell>
        <mxCell id="VrIYwd6mz3Xe0gdIDtXp-186" value="" style="endArrow=none;html=1;rounded=0;entryX=0.602;entryY=0.978;entryDx=0;entryDy=0;entryPerimeter=0;exitX=1;exitY=0.25;exitDx=0;exitDy=0;" edge="1" parent="1" source="VrIYwd6mz3Xe0gdIDtXp-93" target="VrIYwd6mz3Xe0gdIDtXp-46">
          <mxGeometry width="50" height="50" relative="1" as="geometry">
            <mxPoint x="420" y="890" as="sourcePoint" />
            <mxPoint x="470" y="840" as="targetPoint" />
          </mxGeometry>
        </mxCell>
        <mxCell id="VrIYwd6mz3Xe0gdIDtXp-187" value="" style="endArrow=none;html=1;rounded=0;" edge="1" parent="1" target="VrIYwd6mz3Xe0gdIDtXp-40">
          <mxGeometry width="50" height="50" relative="1" as="geometry">
            <mxPoint x="514.38" y="770" as="sourcePoint" />
            <mxPoint x="564.38" y="720" as="targetPoint" />
          </mxGeometry>
        </mxCell>
        <mxCell id="VrIYwd6mz3Xe0gdIDtXp-188" value="" style="endArrow=none;html=1;rounded=0;entryX=0;entryY=1;entryDx=0;entryDy=0;" edge="1" parent="1" target="VrIYwd6mz3Xe0gdIDtXp-40">
          <mxGeometry width="50" height="50" relative="1" as="geometry">
            <mxPoint x="550" y="840" as="sourcePoint" />
            <mxPoint x="600" y="790" as="targetPoint" />
          </mxGeometry>
        </mxCell>
        <mxCell id="VrIYwd6mz3Xe0gdIDtXp-189" value="" style="endArrow=none;html=1;rounded=0;entryX=0.261;entryY=0.904;entryDx=0;entryDy=0;entryPerimeter=0;" edge="1" parent="1" target="VrIYwd6mz3Xe0gdIDtXp-40">
          <mxGeometry width="50" height="50" relative="1" as="geometry">
            <mxPoint x="550" y="910" as="sourcePoint" />
            <mxPoint x="584" y="768" as="targetPoint" />
          </mxGeometry>
        </mxCell>
        <mxCell id="VrIYwd6mz3Xe0gdIDtXp-190" value="" style="endArrow=none;html=1;rounded=0;" edge="1" parent="1" target="VrIYwd6mz3Xe0gdIDtXp-40">
          <mxGeometry width="50" height="50" relative="1" as="geometry">
            <mxPoint x="550" y="989" as="sourcePoint" />
            <mxPoint x="592" y="780" as="targetPoint" />
            <Array as="points">
              <mxPoint x="570" y="880" />
            </Array>
          </mxGeometry>
        </mxCell>
        <mxCell id="VrIYwd6mz3Xe0gdIDtXp-191" value="" style="endArrow=none;html=1;rounded=0;entryX=1;entryY=1;entryDx=0;entryDy=0;" edge="1" parent="1" target="VrIYwd6mz3Xe0gdIDtXp-40">
          <mxGeometry width="50" height="50" relative="1" as="geometry">
            <mxPoint x="650" y="770" as="sourcePoint" />
            <mxPoint x="700" y="720" as="targetPoint" />
          </mxGeometry>
        </mxCell>
        <mxCell id="VrIYwd6mz3Xe0gdIDtXp-195" value="" style="endArrow=none;html=1;rounded=0;entryX=1;entryY=0.5;entryDx=0;entryDy=0;" edge="1" parent="1" target="VrIYwd6mz3Xe0gdIDtXp-39">
          <mxGeometry width="50" height="50" relative="1" as="geometry">
            <mxPoint x="702.5" y="910" as="sourcePoint" />
            <mxPoint x="752.5" y="860" as="targetPoint" />
          </mxGeometry>
        </mxCell>
        <mxCell id="VrIYwd6mz3Xe0gdIDtXp-197" value="" style="endArrow=none;html=1;rounded=0;entryX=0.5;entryY=1;entryDx=0;entryDy=0;" edge="1" parent="1" target="VrIYwd6mz3Xe0gdIDtXp-26">
          <mxGeometry width="50" height="50" relative="1" as="geometry">
            <mxPoint x="811.63" y="845.5" as="sourcePoint" />
            <mxPoint x="851.63" y="774.5" as="targetPoint" />
          </mxGeometry>
        </mxCell>
        <mxCell id="VrIYwd6mz3Xe0gdIDtXp-198" value="" style="endArrow=none;html=1;rounded=0;" edge="1" parent="1">
          <mxGeometry width="50" height="50" relative="1" as="geometry">
            <mxPoint x="820" y="916" as="sourcePoint" />
            <mxPoint x="850" y="710" as="targetPoint" />
          </mxGeometry>
        </mxCell>
        <mxCell id="VrIYwd6mz3Xe0gdIDtXp-199" value="" style="endArrow=none;html=1;rounded=0;entryX=0.735;entryY=0.889;entryDx=0;entryDy=0;entryPerimeter=0;" edge="1" parent="1" target="VrIYwd6mz3Xe0gdIDtXp-26">
          <mxGeometry width="50" height="50" relative="1" as="geometry">
            <mxPoint x="824.75" y="990" as="sourcePoint" />
            <mxPoint x="874.75" y="940" as="targetPoint" />
          </mxGeometry>
        </mxCell>
        <mxCell id="VrIYwd6mz3Xe0gdIDtXp-200" value="" style="endArrow=none;html=1;rounded=0;entryX=0;entryY=1;entryDx=0;entryDy=0;" edge="1" parent="1" target="VrIYwd6mz3Xe0gdIDtXp-25">
          <mxGeometry width="50" height="50" relative="1" as="geometry">
            <mxPoint x="890" y="770" as="sourcePoint" />
            <mxPoint x="940" y="720" as="targetPoint" />
          </mxGeometry>
        </mxCell>
        <mxCell id="VrIYwd6mz3Xe0gdIDtXp-201" value="" style="endArrow=none;html=1;rounded=0;entryX=0.276;entryY=0.904;entryDx=0;entryDy=0;entryPerimeter=0;" edge="1" parent="1" target="VrIYwd6mz3Xe0gdIDtXp-12">
          <mxGeometry width="50" height="50" relative="1" as="geometry">
            <mxPoint x="1008.5" y="770" as="sourcePoint" />
            <mxPoint x="1058.5" y="720" as="targetPoint" />
          </mxGeometry>
        </mxCell>
        <mxCell id="VrIYwd6mz3Xe0gdIDtXp-203" value="" style="endArrow=none;html=1;rounded=0;entryX=0.5;entryY=1;entryDx=0;entryDy=0;" edge="1" parent="1" target="VrIYwd6mz3Xe0gdIDtXp-12">
          <mxGeometry width="50" height="50" relative="1" as="geometry">
            <mxPoint x="1040" y="839" as="sourcePoint" />
            <mxPoint x="1087.5" y="770" as="targetPoint" />
          </mxGeometry>
        </mxCell>
        <mxCell id="VrIYwd6mz3Xe0gdIDtXp-204" value="" style="endArrow=none;html=1;rounded=0;entryX=0.646;entryY=0.948;entryDx=0;entryDy=0;entryPerimeter=0;" edge="1" parent="1" target="VrIYwd6mz3Xe0gdIDtXp-12">
          <mxGeometry width="50" height="50" relative="1" as="geometry">
            <mxPoint x="1051.13" y="910" as="sourcePoint" />
            <mxPoint x="1098.63" y="841" as="targetPoint" />
          </mxGeometry>
        </mxCell>
        <mxCell id="VrIYwd6mz3Xe0gdIDtXp-205" value="" style="endArrow=none;html=1;rounded=0;entryX=1;entryY=1;entryDx=0;entryDy=0;" edge="1" parent="1" target="VrIYwd6mz3Xe0gdIDtXp-12">
          <mxGeometry width="50" height="50" relative="1" as="geometry">
            <mxPoint x="1060" y="986" as="sourcePoint" />
            <mxPoint x="1089.87" y="780" as="targetPoint" />
          </mxGeometry>
        </mxCell>
        <mxCell id="VrIYwd6mz3Xe0gdIDtXp-207" value="" style="endArrow=none;html=1;rounded=0;" edge="1" parent="1">
          <mxGeometry width="50" height="50" relative="1" as="geometry">
            <mxPoint x="1175.43" y="760" as="sourcePoint" />
            <mxPoint x="1180" y="700" as="targetPoint" />
          </mxGeometry>
        </mxCell>
        <mxCell id="VrIYwd6mz3Xe0gdIDtXp-216" value="" style="endArrow=none;html=1;rounded=0;exitX=0.5;exitY=0;exitDx=0;exitDy=0;" edge="1" parent="1">
          <mxGeometry width="50" height="50" relative="1" as="geometry">
            <mxPoint x="1061.75" y="640" as="sourcePoint" />
            <mxPoint x="1063" y="600" as="targetPoint" />
          </mxGeometry>
        </mxCell>
        <mxCell id="VrIYwd6mz3Xe0gdIDtXp-217" value="" style="endArrow=none;html=1;rounded=0;exitX=0.5;exitY=0;exitDx=0;exitDy=0;" edge="1" parent="1">
          <mxGeometry width="50" height="50" relative="1" as="geometry">
            <mxPoint x="1189.75" y="640" as="sourcePoint" />
            <mxPoint x="1191" y="600" as="targetPoint" />
          </mxGeometry>
        </mxCell>
      </root>
    </mxGraphModel>
  </diagram>
</mxfile>
